<mxfile host="app.diagrams.net" modified="2023-03-06T07:03:05.439Z" agent="5.0 (X11; Linux x86_64) AppleWebKit/537.36 (KHTML, like Gecko) QtWebEngine/6.4.2 Chrome/102.0.5005.177 Safari/537.36" etag="3d63K6SICEyaPVxvTCQb" version="21.0.2" type="github">
  <diagram name="Page-1" id="brTqjVfwMc_5Q8qGockZ">
    <mxGraphModel dx="4229" dy="865" grid="1" gridSize="10" guides="1" tooltips="1" connect="1" arrows="1" fold="1" page="1" pageScale="1" pageWidth="1600" pageHeight="1400" math="0" shadow="0">
      <root>
        <mxCell id="0" />
        <mxCell id="1" parent="0" />
        <mxCell id="5jn7lVJ4YSSfxWwRCDw--4" value="Input layer" style="rounded=1;whiteSpace=wrap;html=1;strokeColor=none;fillColor=#FA6800;fontFamily=Times New Roman;fontSize=25;" vertex="1" parent="1">
          <mxGeometry x="-1600" y="560" width="100" height="78" as="geometry" />
        </mxCell>
        <mxCell id="5jn7lVJ4YSSfxWwRCDw--6" value="" style="rounded=1;whiteSpace=wrap;html=1;fillColor=none;strokeColor=#FF8000;rotation=90;" vertex="1" parent="1">
          <mxGeometry x="-1793.36" y="232.51" width="485.72" height="102.34" as="geometry" />
        </mxCell>
        <mxCell id="5jn7lVJ4YSSfxWwRCDw--7" value="" style="rounded=1;whiteSpace=wrap;html=1;fillColor=none;strokeColor=#66b2ff;rotation=90;" vertex="1" parent="1">
          <mxGeometry x="-1518.62" y="228.74" width="344.88" height="101.43" as="geometry" />
        </mxCell>
        <mxCell id="5jn7lVJ4YSSfxWwRCDw--48" style="edgeStyle=none;shape=connector;rounded=0;orthogonalLoop=1;jettySize=auto;html=1;exitX=1;exitY=0.5;exitDx=0;exitDy=0;entryX=0;entryY=0.5;entryDx=0;entryDy=0;labelBackgroundColor=default;strokeColor=default;fontFamily=Times New Roman;fontSize=30;fontColor=default;endArrow=blockThin;endFill=1;" edge="1" parent="1" source="5jn7lVJ4YSSfxWwRCDw--8" target="5jn7lVJ4YSSfxWwRCDw--28">
          <mxGeometry relative="1" as="geometry" />
        </mxCell>
        <mxCell id="5jn7lVJ4YSSfxWwRCDw--55" style="edgeStyle=none;shape=connector;rounded=0;orthogonalLoop=1;jettySize=auto;html=1;exitX=1;exitY=0.5;exitDx=0;exitDy=0;entryX=0;entryY=0.5;entryDx=0;entryDy=0;labelBackgroundColor=default;strokeColor=default;fontFamily=Times New Roman;fontSize=30;fontColor=default;endArrow=blockThin;endFill=1;" edge="1" parent="1" source="5jn7lVJ4YSSfxWwRCDw--8" target="5jn7lVJ4YSSfxWwRCDw--35">
          <mxGeometry relative="1" as="geometry" />
        </mxCell>
        <mxCell id="5jn7lVJ4YSSfxWwRCDw--56" style="edgeStyle=none;shape=connector;rounded=0;orthogonalLoop=1;jettySize=auto;html=1;exitX=1;exitY=0.5;exitDx=0;exitDy=0;entryX=0;entryY=0.5;entryDx=0;entryDy=0;labelBackgroundColor=default;strokeColor=default;fontFamily=Times New Roman;fontSize=30;fontColor=default;endArrow=blockThin;endFill=1;" edge="1" parent="1" source="5jn7lVJ4YSSfxWwRCDw--8" target="5jn7lVJ4YSSfxWwRCDw--41">
          <mxGeometry relative="1" as="geometry" />
        </mxCell>
        <mxCell id="5jn7lVJ4YSSfxWwRCDw--8" value="x1" style="ellipse;whiteSpace=wrap;html=1;aspect=fixed;fillColor=#fa6800;fontFamily=Times New Roman;fontSize=30;" vertex="1" parent="1">
          <mxGeometry x="-1585.4285714285713" y="53.80952380952381" width="74.55587753618435" height="74.55587753618435" as="geometry" />
        </mxCell>
        <mxCell id="5jn7lVJ4YSSfxWwRCDw--49" style="edgeStyle=none;shape=connector;rounded=0;orthogonalLoop=1;jettySize=auto;html=1;exitX=1;exitY=0.5;exitDx=0;exitDy=0;entryX=0;entryY=0.5;entryDx=0;entryDy=0;labelBackgroundColor=default;strokeColor=default;fontFamily=Times New Roman;fontSize=30;fontColor=default;endArrow=blockThin;endFill=1;" edge="1" parent="1" source="5jn7lVJ4YSSfxWwRCDw--11" target="5jn7lVJ4YSSfxWwRCDw--35">
          <mxGeometry relative="1" as="geometry" />
        </mxCell>
        <mxCell id="5jn7lVJ4YSSfxWwRCDw--57" style="edgeStyle=none;shape=connector;rounded=0;orthogonalLoop=1;jettySize=auto;html=1;exitX=1;exitY=0.5;exitDx=0;exitDy=0;entryX=0;entryY=0.5;entryDx=0;entryDy=0;labelBackgroundColor=default;strokeColor=default;fontFamily=Times New Roman;fontSize=30;fontColor=default;endArrow=blockThin;endFill=1;" edge="1" parent="1" source="5jn7lVJ4YSSfxWwRCDw--11" target="5jn7lVJ4YSSfxWwRCDw--28">
          <mxGeometry relative="1" as="geometry" />
        </mxCell>
        <mxCell id="5jn7lVJ4YSSfxWwRCDw--58" style="edgeStyle=none;shape=connector;rounded=0;orthogonalLoop=1;jettySize=auto;html=1;exitX=1;exitY=0.5;exitDx=0;exitDy=0;entryX=0;entryY=0.5;entryDx=0;entryDy=0;labelBackgroundColor=default;strokeColor=default;fontFamily=Times New Roman;fontSize=30;fontColor=default;endArrow=blockThin;endFill=1;" edge="1" parent="1" source="5jn7lVJ4YSSfxWwRCDw--11" target="5jn7lVJ4YSSfxWwRCDw--41">
          <mxGeometry relative="1" as="geometry" />
        </mxCell>
        <mxCell id="5jn7lVJ4YSSfxWwRCDw--11" value="x2" style="ellipse;whiteSpace=wrap;html=1;aspect=fixed;fillColor=#FA6800;fontFamily=Times New Roman;fontSize=30;" vertex="1" parent="1">
          <mxGeometry x="-1587.7785714285712" y="180.00397959183675" width="74.55587753618435" height="74.55587753618435" as="geometry" />
        </mxCell>
        <mxCell id="5jn7lVJ4YSSfxWwRCDw--50" style="edgeStyle=none;shape=connector;rounded=0;orthogonalLoop=1;jettySize=auto;html=1;exitX=1;exitY=0.5;exitDx=0;exitDy=0;entryX=0;entryY=0.5;entryDx=0;entryDy=0;labelBackgroundColor=default;strokeColor=default;fontFamily=Times New Roman;fontSize=30;fontColor=default;endArrow=blockThin;endFill=1;" edge="1" parent="1" source="5jn7lVJ4YSSfxWwRCDw--15" target="5jn7lVJ4YSSfxWwRCDw--41">
          <mxGeometry relative="1" as="geometry" />
        </mxCell>
        <mxCell id="5jn7lVJ4YSSfxWwRCDw--59" style="edgeStyle=none;shape=connector;rounded=0;orthogonalLoop=1;jettySize=auto;html=1;exitX=1;exitY=0.5;exitDx=0;exitDy=0;entryX=0;entryY=0.5;entryDx=0;entryDy=0;labelBackgroundColor=default;strokeColor=default;fontFamily=Times New Roman;fontSize=30;fontColor=default;endArrow=blockThin;endFill=1;" edge="1" parent="1" source="5jn7lVJ4YSSfxWwRCDw--15" target="5jn7lVJ4YSSfxWwRCDw--28">
          <mxGeometry relative="1" as="geometry" />
        </mxCell>
        <mxCell id="5jn7lVJ4YSSfxWwRCDw--60" style="edgeStyle=none;shape=connector;rounded=0;orthogonalLoop=1;jettySize=auto;html=1;exitX=1;exitY=0.5;exitDx=0;exitDy=0;entryX=0;entryY=0.5;entryDx=0;entryDy=0;labelBackgroundColor=default;strokeColor=default;fontFamily=Times New Roman;fontSize=30;fontColor=default;endArrow=blockThin;endFill=1;" edge="1" parent="1" source="5jn7lVJ4YSSfxWwRCDw--15" target="5jn7lVJ4YSSfxWwRCDw--35">
          <mxGeometry relative="1" as="geometry" />
        </mxCell>
        <mxCell id="5jn7lVJ4YSSfxWwRCDw--15" value="x3" style="ellipse;whiteSpace=wrap;html=1;aspect=fixed;fillColor=#FA6800;fontFamily=Times New Roman;fontSize=30;" vertex="1" parent="1">
          <mxGeometry x="-1587.7785714285712" y="309.99843537414966" width="74.55587753618435" height="74.55587753618435" as="geometry" />
        </mxCell>
        <mxCell id="5jn7lVJ4YSSfxWwRCDw--52" style="edgeStyle=none;shape=connector;rounded=0;orthogonalLoop=1;jettySize=auto;html=1;exitX=1;exitY=0.5;exitDx=0;exitDy=0;entryX=0;entryY=0.5;entryDx=0;entryDy=0;labelBackgroundColor=default;strokeColor=default;fontFamily=Times New Roman;fontSize=30;fontColor=default;endArrow=blockThin;endFill=1;" edge="1" parent="1" source="5jn7lVJ4YSSfxWwRCDw--19" target="5jn7lVJ4YSSfxWwRCDw--35">
          <mxGeometry relative="1" as="geometry" />
        </mxCell>
        <mxCell id="5jn7lVJ4YSSfxWwRCDw--53" style="edgeStyle=none;shape=connector;rounded=0;orthogonalLoop=1;jettySize=auto;html=1;exitX=1;exitY=0.5;exitDx=0;exitDy=0;entryX=0;entryY=0.5;entryDx=0;entryDy=0;labelBackgroundColor=default;strokeColor=default;fontFamily=Times New Roman;fontSize=30;fontColor=default;endArrow=blockThin;endFill=1;" edge="1" parent="1" source="5jn7lVJ4YSSfxWwRCDw--19" target="5jn7lVJ4YSSfxWwRCDw--41">
          <mxGeometry relative="1" as="geometry" />
        </mxCell>
        <mxCell id="5jn7lVJ4YSSfxWwRCDw--54" style="edgeStyle=none;shape=connector;rounded=0;orthogonalLoop=1;jettySize=auto;html=1;exitX=1;exitY=0.5;exitDx=0;exitDy=0;entryX=0;entryY=0.5;entryDx=0;entryDy=0;labelBackgroundColor=default;strokeColor=default;fontFamily=Times New Roman;fontSize=30;fontColor=default;endArrow=blockThin;endFill=1;" edge="1" parent="1" source="5jn7lVJ4YSSfxWwRCDw--19" target="5jn7lVJ4YSSfxWwRCDw--28">
          <mxGeometry relative="1" as="geometry" />
        </mxCell>
        <mxCell id="5jn7lVJ4YSSfxWwRCDw--19" value="x4" style="ellipse;whiteSpace=wrap;html=1;aspect=fixed;fillColor=#FA6800;fontFamily=Times New Roman;fontSize=30;fillStyle=auto;" vertex="1" parent="1">
          <mxGeometry x="-1585.4285714285713" y="439.23289115646253" width="74.55587753618435" height="74.55587753618435" as="geometry" />
        </mxCell>
        <mxCell id="5jn7lVJ4YSSfxWwRCDw--20" value="y1" style="ellipse;whiteSpace=wrap;html=1;aspect=fixed;fillColor=#92d050;fontFamily=Times New Roman;fontSize=30;strokeColor=#36393d;" vertex="1" parent="1">
          <mxGeometry x="-1185.7959061112738" y="53.80952380952381" width="74.55587753618435" height="74.55587753618435" as="geometry" />
        </mxCell>
        <mxCell id="5jn7lVJ4YSSfxWwRCDw--21" value="y2" style="ellipse;whiteSpace=wrap;html=1;aspect=fixed;fillColor=#92D050;fontFamily=Times New Roman;fontSize=30;strokeColor=#36393d;" vertex="1" parent="1">
          <mxGeometry x="-1185.7959061112738" y="180.00397959183675" width="74.55587753618435" height="74.55587753618435" as="geometry" />
        </mxCell>
        <mxCell id="5jn7lVJ4YSSfxWwRCDw--22" value="y3" style="ellipse;whiteSpace=wrap;html=1;aspect=fixed;fillColor=#92D050;fontFamily=Times New Roman;fontSize=30;strokeColor=#36393d;" vertex="1" parent="1">
          <mxGeometry x="-1185.7959061112738" y="309.99843537414966" width="74.55587753618435" height="74.55587753618435" as="geometry" />
        </mxCell>
        <mxCell id="5jn7lVJ4YSSfxWwRCDw--23" value="y4" style="ellipse;whiteSpace=wrap;html=1;aspect=fixed;fillColor=#92D050;fontFamily=Times New Roman;fontSize=30;strokeColor=#36393d;" vertex="1" parent="1">
          <mxGeometry x="-1185.7959061112738" y="439.2328911564625" width="74.55587753618435" height="74.55587753618435" as="geometry" />
        </mxCell>
        <mxCell id="5jn7lVJ4YSSfxWwRCDw--24" style="edgeStyle=none;rounded=0;orthogonalLoop=1;jettySize=auto;html=1;exitX=1;exitY=0.5;exitDx=0;exitDy=0;entryX=0;entryY=0.5;entryDx=0;entryDy=0;endArrow=blockThin;endFill=1;fontFamily=Times New Roman;fontSize=30;" edge="1" parent="1" source="5jn7lVJ4YSSfxWwRCDw--28" target="5jn7lVJ4YSSfxWwRCDw--20">
          <mxGeometry relative="1" as="geometry" />
        </mxCell>
        <mxCell id="5jn7lVJ4YSSfxWwRCDw--25" style="edgeStyle=none;rounded=0;orthogonalLoop=1;jettySize=auto;html=1;exitX=1;exitY=0.5;exitDx=0;exitDy=0;entryX=0;entryY=0.5;entryDx=0;entryDy=0;endArrow=blockThin;endFill=1;fontFamily=Times New Roman;fontSize=30;" edge="1" parent="1" source="5jn7lVJ4YSSfxWwRCDw--28" target="5jn7lVJ4YSSfxWwRCDw--21">
          <mxGeometry relative="1" as="geometry" />
        </mxCell>
        <mxCell id="5jn7lVJ4YSSfxWwRCDw--26" style="edgeStyle=none;rounded=0;orthogonalLoop=1;jettySize=auto;html=1;exitX=1;exitY=0.5;exitDx=0;exitDy=0;entryX=0;entryY=0.5;entryDx=0;entryDy=0;endArrow=blockThin;endFill=1;fontFamily=Times New Roman;fontSize=30;" edge="1" parent="1" source="5jn7lVJ4YSSfxWwRCDw--28" target="5jn7lVJ4YSSfxWwRCDw--22">
          <mxGeometry relative="1" as="geometry" />
        </mxCell>
        <mxCell id="5jn7lVJ4YSSfxWwRCDw--27" style="edgeStyle=none;rounded=0;orthogonalLoop=1;jettySize=auto;html=1;exitX=1;exitY=0.5;exitDx=0;exitDy=0;entryX=0;entryY=0.5;entryDx=0;entryDy=0;endArrow=blockThin;endFill=1;fontFamily=Times New Roman;fontSize=30;" edge="1" parent="1" source="5jn7lVJ4YSSfxWwRCDw--28" target="5jn7lVJ4YSSfxWwRCDw--23">
          <mxGeometry relative="1" as="geometry" />
        </mxCell>
        <mxCell id="5jn7lVJ4YSSfxWwRCDw--28" value="h1" style="ellipse;whiteSpace=wrap;html=1;aspect=fixed;fillColor=#3399ff;fontFamily=Times New Roman;fontSize=30;" vertex="1" parent="1">
          <mxGeometry x="-1382.4538081335336" y="119.99675170068028" width="74.55587753618435" height="74.55587753618435" as="geometry" />
        </mxCell>
        <mxCell id="5jn7lVJ4YSSfxWwRCDw--31" style="edgeStyle=none;rounded=0;orthogonalLoop=1;jettySize=auto;html=1;exitX=1;exitY=0.5;exitDx=0;exitDy=0;entryX=0;entryY=0.5;entryDx=0;entryDy=0;endArrow=blockThin;endFill=1;fontFamily=Times New Roman;fontSize=30;" edge="1" parent="1" source="5jn7lVJ4YSSfxWwRCDw--35" target="5jn7lVJ4YSSfxWwRCDw--20">
          <mxGeometry relative="1" as="geometry" />
        </mxCell>
        <mxCell id="5jn7lVJ4YSSfxWwRCDw--32" style="edgeStyle=none;rounded=0;orthogonalLoop=1;jettySize=auto;html=1;exitX=1;exitY=0.5;exitDx=0;exitDy=0;entryX=0;entryY=0.5;entryDx=0;entryDy=0;endArrow=blockThin;endFill=1;fontFamily=Times New Roman;fontSize=30;" edge="1" parent="1" source="5jn7lVJ4YSSfxWwRCDw--35" target="5jn7lVJ4YSSfxWwRCDw--21">
          <mxGeometry relative="1" as="geometry" />
        </mxCell>
        <mxCell id="5jn7lVJ4YSSfxWwRCDw--33" style="edgeStyle=none;rounded=0;orthogonalLoop=1;jettySize=auto;html=1;exitX=1;exitY=0.5;exitDx=0;exitDy=0;entryX=0;entryY=0.5;entryDx=0;entryDy=0;endArrow=blockThin;endFill=1;fontFamily=Times New Roman;fontSize=30;" edge="1" parent="1" source="5jn7lVJ4YSSfxWwRCDw--35" target="5jn7lVJ4YSSfxWwRCDw--22">
          <mxGeometry relative="1" as="geometry" />
        </mxCell>
        <mxCell id="5jn7lVJ4YSSfxWwRCDw--34" style="edgeStyle=none;rounded=0;orthogonalLoop=1;jettySize=auto;html=1;exitX=1;exitY=0.5;exitDx=0;exitDy=0;entryX=0;entryY=0.5;entryDx=0;entryDy=0;endArrow=blockThin;endFill=1;fontFamily=Times New Roman;fontSize=30;" edge="1" parent="1" source="5jn7lVJ4YSSfxWwRCDw--35" target="5jn7lVJ4YSSfxWwRCDw--23">
          <mxGeometry relative="1" as="geometry" />
        </mxCell>
        <mxCell id="5jn7lVJ4YSSfxWwRCDw--35" value="h2" style="ellipse;whiteSpace=wrap;html=1;aspect=fixed;fillColor=#3399FF;fontFamily=Times New Roman;fontSize=30;" vertex="1" parent="1">
          <mxGeometry x="-1382.4538081335336" y="243.43254411139455" width="74.55587753618435" height="74.55587753618435" as="geometry" />
        </mxCell>
        <mxCell id="5jn7lVJ4YSSfxWwRCDw--37" style="edgeStyle=none;rounded=0;orthogonalLoop=1;jettySize=auto;html=1;exitX=1;exitY=0.5;exitDx=0;exitDy=0;entryX=0;entryY=0.5;entryDx=0;entryDy=0;endArrow=blockThin;endFill=1;fontFamily=Times New Roman;fontSize=30;" edge="1" parent="1" source="5jn7lVJ4YSSfxWwRCDw--41" target="5jn7lVJ4YSSfxWwRCDw--20">
          <mxGeometry relative="1" as="geometry" />
        </mxCell>
        <mxCell id="5jn7lVJ4YSSfxWwRCDw--38" style="edgeStyle=none;rounded=0;orthogonalLoop=1;jettySize=auto;html=1;exitX=1;exitY=0.5;exitDx=0;exitDy=0;entryX=0;entryY=0.5;entryDx=0;entryDy=0;endArrow=blockThin;endFill=1;fontFamily=Times New Roman;fontSize=30;" edge="1" parent="1" source="5jn7lVJ4YSSfxWwRCDw--41" target="5jn7lVJ4YSSfxWwRCDw--21">
          <mxGeometry relative="1" as="geometry" />
        </mxCell>
        <mxCell id="5jn7lVJ4YSSfxWwRCDw--39" style="edgeStyle=none;rounded=0;orthogonalLoop=1;jettySize=auto;html=1;exitX=1;exitY=0.5;exitDx=0;exitDy=0;entryX=0;entryY=0.5;entryDx=0;entryDy=0;endArrow=blockThin;endFill=1;fontFamily=Times New Roman;fontSize=30;" edge="1" parent="1" source="5jn7lVJ4YSSfxWwRCDw--41" target="5jn7lVJ4YSSfxWwRCDw--22">
          <mxGeometry relative="1" as="geometry" />
        </mxCell>
        <mxCell id="5jn7lVJ4YSSfxWwRCDw--40" style="edgeStyle=none;rounded=0;orthogonalLoop=1;jettySize=auto;html=1;exitX=1;exitY=0.5;exitDx=0;exitDy=0;entryX=0;entryY=0.5;entryDx=0;entryDy=0;endArrow=blockThin;endFill=1;fontFamily=Times New Roman;fontSize=30;" edge="1" parent="1" source="5jn7lVJ4YSSfxWwRCDw--41" target="5jn7lVJ4YSSfxWwRCDw--23">
          <mxGeometry relative="1" as="geometry" />
        </mxCell>
        <mxCell id="5jn7lVJ4YSSfxWwRCDw--41" value="h3" style="ellipse;whiteSpace=wrap;html=1;aspect=fixed;fillColor=#3399FF;fontFamily=Times New Roman;fontSize=30;" vertex="1" parent="1">
          <mxGeometry x="-1382.4538081335336" y="364.6756632653061" width="74.55587753618435" height="74.55587753618435" as="geometry" />
        </mxCell>
        <mxCell id="5jn7lVJ4YSSfxWwRCDw--61" style="edgeStyle=none;shape=connector;rounded=0;orthogonalLoop=1;jettySize=auto;html=1;exitX=1;exitY=0.5;exitDx=0;exitDy=0;labelBackgroundColor=default;strokeColor=default;fontFamily=Times New Roman;fontSize=30;fontColor=default;endArrow=blockThin;endFill=1;" edge="1" parent="1">
          <mxGeometry relative="1" as="geometry">
            <mxPoint x="-1148.5200000000004" y="532.8399999999999" as="sourcePoint" />
            <mxPoint x="-1148.5200000000004" y="532.8399999999999" as="targetPoint" />
          </mxGeometry>
        </mxCell>
        <mxCell id="5jn7lVJ4YSSfxWwRCDw--62" style="edgeStyle=none;shape=connector;rounded=0;orthogonalLoop=1;jettySize=auto;html=1;exitX=1;exitY=0.5;exitDx=0;exitDy=0;labelBackgroundColor=default;strokeColor=default;fontFamily=Times New Roman;fontSize=30;fontColor=default;endArrow=blockThin;endFill=1;" edge="1" parent="1">
          <mxGeometry relative="1" as="geometry">
            <mxPoint x="-1148.5200000000004" y="532.8399999999999" as="sourcePoint" />
            <mxPoint x="-1148.5200000000004" y="532.8399999999999" as="targetPoint" />
          </mxGeometry>
        </mxCell>
        <mxCell id="5jn7lVJ4YSSfxWwRCDw--63" value="" style="rounded=1;whiteSpace=wrap;html=1;fillColor=none;strokeColor=#92D050;rotation=90;" vertex="1" parent="1">
          <mxGeometry x="-1391.3799999999999" y="232.51" width="485.72" height="102.34" as="geometry" />
        </mxCell>
        <mxCell id="5jn7lVJ4YSSfxWwRCDw--64" value="Hidden layer" style="rounded=1;whiteSpace=wrap;html=1;strokeColor=none;fillColor=#3399FF;fontFamily=Times New Roman;fontSize=25;" vertex="1" parent="1">
          <mxGeometry x="-1395.18" y="560" width="100" height="78" as="geometry" />
        </mxCell>
        <mxCell id="5jn7lVJ4YSSfxWwRCDw--65" value="Output layer" style="rounded=1;whiteSpace=wrap;html=1;strokeColor=none;fillColor=#92D050;fontFamily=Times New Roman;fontSize=25;" vertex="1" parent="1">
          <mxGeometry x="-1198.52" y="560" width="100" height="78" as="geometry" />
        </mxCell>
      </root>
    </mxGraphModel>
  </diagram>
</mxfile>
